<mxfile host="app.diagrams.net" modified="2022-10-09T15:57:06.175Z" agent="5.0 (Windows NT 10.0; Win64; x64) AppleWebKit/537.36 (KHTML, like Gecko) Chrome/106.0.0.0 Safari/537.36 Edg/106.0.1370.34" etag="Lh0xKav-qKyGyKTTZqEz" version="20.4.0" type="github">
  <diagram id="tUmb8XhlvgioK_n3crcl" name="Page-1">
    <mxGraphModel dx="1037" dy="547" grid="1" gridSize="10" guides="1" tooltips="1" connect="1" arrows="1" fold="1" page="1" pageScale="1" pageWidth="1000" pageHeight="1000" math="0" shadow="0">
      <root>
        <mxCell id="0" />
        <mxCell id="1" parent="0" />
        <mxCell id="RqvUq66pB6Gr40ib2uWk-3" value="&lt;span style=&quot;color: rgb(51, 51, 51); font-family: -apple-system, BlinkMacSystemFont, &amp;quot;Helvetica Neue&amp;quot;, &amp;quot;PingFang SC&amp;quot;, &amp;quot;Microsoft YaHei&amp;quot;, &amp;quot;Source Han Sans SC&amp;quot;, &amp;quot;Noto Sans CJK SC&amp;quot;, &amp;quot;WenQuanYi Micro Hei&amp;quot;, sans-serif; font-size: 15px; text-align: start; background-color: rgb(255, 255, 255);&quot;&gt;&lt;br&gt;&lt;/span&gt;" style="whiteSpace=wrap;html=1;" parent="1" vertex="1">
          <mxGeometry x="260" y="1000" width="380" height="210" as="geometry" />
        </mxCell>
        <mxCell id="quHDzJTUn6T4a545BPjp-5" value="&lt;span style=&quot;color: rgb(51, 51, 51); font-family: -apple-system, BlinkMacSystemFont, &amp;quot;Helvetica Neue&amp;quot;, &amp;quot;PingFang SC&amp;quot;, &amp;quot;Microsoft YaHei&amp;quot;, &amp;quot;Source Han Sans SC&amp;quot;, &amp;quot;Noto Sans CJK SC&amp;quot;, &amp;quot;WenQuanYi Micro Hei&amp;quot;, sans-serif; font-size: 15px; text-align: start; background-color: rgb(255, 255, 255);&quot;&gt;&lt;br&gt;&lt;/span&gt;" style="whiteSpace=wrap;html=1;" parent="1" vertex="1">
          <mxGeometry x="240" y="160" width="280" height="240" as="geometry" />
        </mxCell>
        <mxCell id="quHDzJTUn6T4a545BPjp-22" style="edgeStyle=orthogonalEdgeStyle;rounded=0;orthogonalLoop=1;jettySize=auto;html=1;" parent="1" source="quHDzJTUn6T4a545BPjp-1" target="quHDzJTUn6T4a545BPjp-5" edge="1">
          <mxGeometry relative="1" as="geometry" />
        </mxCell>
        <mxCell id="quHDzJTUn6T4a545BPjp-1" value="&lt;span style=&quot;color: rgb(51, 51, 51); font-family: -apple-system, BlinkMacSystemFont, &amp;quot;Helvetica Neue&amp;quot;, &amp;quot;PingFang SC&amp;quot;, &amp;quot;Microsoft YaHei&amp;quot;, &amp;quot;Source Han Sans SC&amp;quot;, &amp;quot;Noto Sans CJK SC&amp;quot;, &amp;quot;WenQuanYi Micro Hei&amp;quot;, sans-serif; font-size: 15px; text-align: start; background-color: rgb(255, 255, 255);&quot;&gt;Producer&lt;/span&gt;" style="rounded=0;whiteSpace=wrap;html=1;" parent="1" vertex="1">
          <mxGeometry x="320" y="80" width="120" height="40" as="geometry" />
        </mxCell>
        <mxCell id="quHDzJTUn6T4a545BPjp-3" value="&lt;span style=&quot;color: rgb(51, 51, 51); font-family: -apple-system, BlinkMacSystemFont, &amp;quot;Helvetica Neue&amp;quot;, &amp;quot;PingFang SC&amp;quot;, &amp;quot;Microsoft YaHei&amp;quot;, &amp;quot;Source Han Sans SC&amp;quot;, &amp;quot;Noto Sans CJK SC&amp;quot;, &amp;quot;WenQuanYi Micro Hei&amp;quot;, sans-serif; font-size: 15px; text-align: start; background-color: rgb(255, 255, 255);&quot;&gt;Consumer&lt;/span&gt;" style="rounded=0;whiteSpace=wrap;html=1;" parent="1" vertex="1">
          <mxGeometry x="320" y="440" width="120" height="40" as="geometry" />
        </mxCell>
        <mxCell id="quHDzJTUn6T4a545BPjp-23" style="edgeStyle=orthogonalEdgeStyle;rounded=0;orthogonalLoop=1;jettySize=auto;html=1;entryX=0.5;entryY=0;entryDx=0;entryDy=0;" parent="1" source="quHDzJTUn6T4a545BPjp-5" target="quHDzJTUn6T4a545BPjp-3" edge="1">
          <mxGeometry relative="1" as="geometry" />
        </mxCell>
        <mxCell id="quHDzJTUn6T4a545BPjp-13" value="" style="group" parent="1" vertex="1" connectable="0">
          <mxGeometry x="250" y="220" width="260" height="80" as="geometry" />
        </mxCell>
        <mxCell id="quHDzJTUn6T4a545BPjp-12" value="" style="rounded=1;whiteSpace=wrap;html=1;" parent="quHDzJTUn6T4a545BPjp-13" vertex="1">
          <mxGeometry width="260" height="80" as="geometry" />
        </mxCell>
        <mxCell id="quHDzJTUn6T4a545BPjp-7" value="&lt;span style=&quot;color: rgb(51, 51, 51); font-family: -apple-system, BlinkMacSystemFont, &amp;quot;Helvetica Neue&amp;quot;, &amp;quot;PingFang SC&amp;quot;, &amp;quot;Microsoft YaHei&amp;quot;, &amp;quot;Source Han Sans SC&amp;quot;, &amp;quot;Noto Sans CJK SC&amp;quot;, &amp;quot;WenQuanYi Micro Hei&amp;quot;, sans-serif; font-size: 15px; text-align: start; background-color: rgb(255, 255, 255);&quot;&gt;topic&lt;/span&gt;" style="text;html=1;align=center;verticalAlign=middle;resizable=0;points=[];autosize=1;strokeColor=none;fillColor=none;" parent="quHDzJTUn6T4a545BPjp-13" vertex="1">
          <mxGeometry x="100" width="60" height="30" as="geometry" />
        </mxCell>
        <mxCell id="quHDzJTUn6T4a545BPjp-8" value="&lt;span style=&quot;color: rgb(51, 51, 51); font-family: -apple-system, BlinkMacSystemFont, &amp;quot;Helvetica Neue&amp;quot;, &amp;quot;PingFang SC&amp;quot;, &amp;quot;Microsoft YaHei&amp;quot;, &amp;quot;Source Han Sans SC&amp;quot;, &amp;quot;Noto Sans CJK SC&amp;quot;, &amp;quot;WenQuanYi Micro Hei&amp;quot;, sans-serif; font-size: 15px; text-align: start; background-color: rgb(255, 255, 255);&quot;&gt;partition&lt;/span&gt;" style="rounded=0;whiteSpace=wrap;html=1;" parent="quHDzJTUn6T4a545BPjp-13" vertex="1">
          <mxGeometry x="10" y="30" width="80" height="40" as="geometry" />
        </mxCell>
        <mxCell id="quHDzJTUn6T4a545BPjp-9" value="&lt;span style=&quot;color: rgb(51, 51, 51); font-family: -apple-system, BlinkMacSystemFont, &amp;quot;Helvetica Neue&amp;quot;, &amp;quot;PingFang SC&amp;quot;, &amp;quot;Microsoft YaHei&amp;quot;, &amp;quot;Source Han Sans SC&amp;quot;, &amp;quot;Noto Sans CJK SC&amp;quot;, &amp;quot;WenQuanYi Micro Hei&amp;quot;, sans-serif; font-size: 15px; text-align: start; background-color: rgb(255, 255, 255);&quot;&gt;partition&lt;/span&gt;" style="rounded=0;whiteSpace=wrap;html=1;" parent="quHDzJTUn6T4a545BPjp-13" vertex="1">
          <mxGeometry x="90" y="30" width="80" height="40" as="geometry" />
        </mxCell>
        <mxCell id="quHDzJTUn6T4a545BPjp-10" value="&lt;span style=&quot;color: rgb(51, 51, 51); font-family: -apple-system, BlinkMacSystemFont, &amp;quot;Helvetica Neue&amp;quot;, &amp;quot;PingFang SC&amp;quot;, &amp;quot;Microsoft YaHei&amp;quot;, &amp;quot;Source Han Sans SC&amp;quot;, &amp;quot;Noto Sans CJK SC&amp;quot;, &amp;quot;WenQuanYi Micro Hei&amp;quot;, sans-serif; font-size: 15px; text-align: start; background-color: rgb(255, 255, 255);&quot;&gt;partition&lt;/span&gt;" style="rounded=0;whiteSpace=wrap;html=1;" parent="quHDzJTUn6T4a545BPjp-13" vertex="1">
          <mxGeometry x="170" y="30" width="80" height="40" as="geometry" />
        </mxCell>
        <mxCell id="quHDzJTUn6T4a545BPjp-16" value="" style="group" parent="1" vertex="1" connectable="0">
          <mxGeometry x="250" y="310" width="260" height="80" as="geometry" />
        </mxCell>
        <mxCell id="quHDzJTUn6T4a545BPjp-17" value="" style="rounded=1;whiteSpace=wrap;html=1;" parent="quHDzJTUn6T4a545BPjp-16" vertex="1">
          <mxGeometry width="260" height="80" as="geometry" />
        </mxCell>
        <mxCell id="quHDzJTUn6T4a545BPjp-18" value="&lt;span style=&quot;color: rgb(51, 51, 51); font-family: -apple-system, BlinkMacSystemFont, &amp;quot;Helvetica Neue&amp;quot;, &amp;quot;PingFang SC&amp;quot;, &amp;quot;Microsoft YaHei&amp;quot;, &amp;quot;Source Han Sans SC&amp;quot;, &amp;quot;Noto Sans CJK SC&amp;quot;, &amp;quot;WenQuanYi Micro Hei&amp;quot;, sans-serif; font-size: 15px; text-align: start; background-color: rgb(255, 255, 255);&quot;&gt;topic&lt;/span&gt;" style="text;html=1;align=center;verticalAlign=middle;resizable=0;points=[];autosize=1;strokeColor=none;fillColor=none;" parent="quHDzJTUn6T4a545BPjp-16" vertex="1">
          <mxGeometry x="100" width="60" height="30" as="geometry" />
        </mxCell>
        <mxCell id="quHDzJTUn6T4a545BPjp-19" value="&lt;span style=&quot;color: rgb(51, 51, 51); font-family: -apple-system, BlinkMacSystemFont, &amp;quot;Helvetica Neue&amp;quot;, &amp;quot;PingFang SC&amp;quot;, &amp;quot;Microsoft YaHei&amp;quot;, &amp;quot;Source Han Sans SC&amp;quot;, &amp;quot;Noto Sans CJK SC&amp;quot;, &amp;quot;WenQuanYi Micro Hei&amp;quot;, sans-serif; font-size: 15px; text-align: start; background-color: rgb(255, 255, 255);&quot;&gt;partition&lt;/span&gt;" style="rounded=0;whiteSpace=wrap;html=1;" parent="quHDzJTUn6T4a545BPjp-16" vertex="1">
          <mxGeometry x="10" y="30" width="80" height="40" as="geometry" />
        </mxCell>
        <mxCell id="quHDzJTUn6T4a545BPjp-20" value="&lt;span style=&quot;color: rgb(51, 51, 51); font-family: -apple-system, BlinkMacSystemFont, &amp;quot;Helvetica Neue&amp;quot;, &amp;quot;PingFang SC&amp;quot;, &amp;quot;Microsoft YaHei&amp;quot;, &amp;quot;Source Han Sans SC&amp;quot;, &amp;quot;Noto Sans CJK SC&amp;quot;, &amp;quot;WenQuanYi Micro Hei&amp;quot;, sans-serif; font-size: 15px; text-align: start; background-color: rgb(255, 255, 255);&quot;&gt;partition&lt;/span&gt;" style="rounded=0;whiteSpace=wrap;html=1;" parent="quHDzJTUn6T4a545BPjp-16" vertex="1">
          <mxGeometry x="90" y="30" width="80" height="40" as="geometry" />
        </mxCell>
        <mxCell id="quHDzJTUn6T4a545BPjp-21" value="&lt;span style=&quot;color: rgb(51, 51, 51); font-family: -apple-system, BlinkMacSystemFont, &amp;quot;Helvetica Neue&amp;quot;, &amp;quot;PingFang SC&amp;quot;, &amp;quot;Microsoft YaHei&amp;quot;, &amp;quot;Source Han Sans SC&amp;quot;, &amp;quot;Noto Sans CJK SC&amp;quot;, &amp;quot;WenQuanYi Micro Hei&amp;quot;, sans-serif; font-size: 15px; text-align: start; background-color: rgb(255, 255, 255);&quot;&gt;partition&lt;/span&gt;" style="rounded=0;whiteSpace=wrap;html=1;" parent="quHDzJTUn6T4a545BPjp-16" vertex="1">
          <mxGeometry x="170" y="30" width="80" height="40" as="geometry" />
        </mxCell>
        <mxCell id="quHDzJTUn6T4a545BPjp-28" value="&lt;span style=&quot;color: rgb(51, 51, 51); font-family: -apple-system, BlinkMacSystemFont, &amp;quot;Helvetica Neue&amp;quot;, &amp;quot;PingFang SC&amp;quot;, &amp;quot;Microsoft YaHei&amp;quot;, &amp;quot;Source Han Sans SC&amp;quot;, &amp;quot;Noto Sans CJK SC&amp;quot;, &amp;quot;WenQuanYi Micro Hei&amp;quot;, sans-serif; text-align: start; font-size: 15px;&quot;&gt;Offset&lt;/span&gt;&lt;br style=&quot;color: rgb(51, 51, 51); font-family: -apple-system, BlinkMacSystemFont, &amp;quot;Helvetica Neue&amp;quot;, &amp;quot;PingFang SC&amp;quot;, &amp;quot;Microsoft YaHei&amp;quot;, &amp;quot;Source Han Sans SC&amp;quot;, &amp;quot;Noto Sans CJK SC&amp;quot;, &amp;quot;WenQuanYi Micro Hei&amp;quot;, sans-serif; font-size: 12px; text-align: start;&quot;&gt;&lt;font style=&quot;color: rgb(51, 51, 51); font-family: -apple-system, BlinkMacSystemFont, &amp;quot;Helvetica Neue&amp;quot;, &amp;quot;PingFang SC&amp;quot;, &amp;quot;Microsoft YaHei&amp;quot;, &amp;quot;Source Han Sans SC&amp;quot;, &amp;quot;Noto Sans CJK SC&amp;quot;, &amp;quot;WenQuanYi Micro Hei&amp;quot;, sans-serif; text-align: start;&quot;&gt;（消息在文件中的偏移量）&lt;/font&gt;" style="rounded=1;whiteSpace=wrap;html=1;fontSize=11;" parent="1" vertex="1">
          <mxGeometry x="560" y="220" width="150" height="60" as="geometry" />
        </mxCell>
        <mxCell id="quHDzJTUn6T4a545BPjp-29" value="&lt;span style=&quot;color: rgb(51, 51, 51); font-family: -apple-system, BlinkMacSystemFont, &amp;quot;Helvetica Neue&amp;quot;, &amp;quot;PingFang SC&amp;quot;, &amp;quot;Microsoft YaHei&amp;quot;, &amp;quot;Source Han Sans SC&amp;quot;, &amp;quot;Noto Sans CJK SC&amp;quot;, &amp;quot;WenQuanYi Micro Hei&amp;quot;, sans-serif; font-size: 15px; text-align: start; background-color: rgb(255, 255, 255);&quot;&gt;broker&lt;/span&gt;&lt;br style=&quot;color: rgb(51, 51, 51); font-family: -apple-system, BlinkMacSystemFont, &amp;quot;Helvetica Neue&amp;quot;, &amp;quot;PingFang SC&amp;quot;, &amp;quot;Microsoft YaHei&amp;quot;, &amp;quot;Source Han Sans SC&amp;quot;, &amp;quot;Noto Sans CJK SC&amp;quot;, &amp;quot;WenQuanYi Micro Hei&amp;quot;, sans-serif; font-size: 15px; text-align: start;&quot;&gt;&lt;span style=&quot;color: rgb(51, 51, 51); font-family: -apple-system, BlinkMacSystemFont, &amp;quot;Helvetica Neue&amp;quot;, &amp;quot;PingFang SC&amp;quot;, &amp;quot;Microsoft YaHei&amp;quot;, &amp;quot;Source Han Sans SC&amp;quot;, &amp;quot;Noto Sans CJK SC&amp;quot;, &amp;quot;WenQuanYi Micro Hei&amp;quot;, sans-serif; font-size: 15px; text-align: start; background-color: rgb(255, 255, 255);&quot;&gt;（kafka 实例）&lt;/span&gt;" style="text;html=1;align=center;verticalAlign=middle;resizable=0;points=[];autosize=1;strokeColor=none;fillColor=none;fontSize=11;" parent="1" vertex="1">
          <mxGeometry x="315" y="160" width="130" height="50" as="geometry" />
        </mxCell>
        <mxCell id="quHDzJTUn6T4a545BPjp-30" style="edgeStyle=orthogonalEdgeStyle;rounded=0;orthogonalLoop=1;jettySize=auto;html=1;entryX=0;entryY=0.25;entryDx=0;entryDy=0;dashed=1;fontSize=11;exitX=0;exitY=0.5;exitDx=0;exitDy=0;" parent="1" source="quHDzJTUn6T4a545BPjp-1" target="quHDzJTUn6T4a545BPjp-8" edge="1">
          <mxGeometry relative="1" as="geometry">
            <Array as="points">
              <mxPoint x="200" y="100" />
              <mxPoint x="200" y="260" />
            </Array>
          </mxGeometry>
        </mxCell>
        <mxCell id="quHDzJTUn6T4a545BPjp-31" value="&lt;span style=&quot;color: rgb(51, 51, 51); font-family: -apple-system, BlinkMacSystemFont, &amp;quot;Helvetica Neue&amp;quot;, &amp;quot;PingFang SC&amp;quot;, &amp;quot;Microsoft YaHei&amp;quot;, &amp;quot;Source Han Sans SC&amp;quot;, &amp;quot;Noto Sans CJK SC&amp;quot;, &amp;quot;WenQuanYi Micro Hei&amp;quot;, sans-serif; font-size: 15px; text-align: start;&quot;&gt;socket&amp;nbsp;&lt;/span&gt;" style="edgeLabel;html=1;align=center;verticalAlign=middle;resizable=0;points=[];fontSize=11;" parent="quHDzJTUn6T4a545BPjp-30" vertex="1" connectable="0">
          <mxGeometry x="-0.4235" y="2" relative="1" as="geometry">
            <mxPoint x="-22" y="48" as="offset" />
          </mxGeometry>
        </mxCell>
        <mxCell id="quHDzJTUn6T4a545BPjp-32" style="edgeStyle=orthogonalEdgeStyle;rounded=0;orthogonalLoop=1;jettySize=auto;html=1;entryX=0;entryY=0.5;entryDx=0;entryDy=0;dashed=1;fontSize=11;" parent="1" source="quHDzJTUn6T4a545BPjp-8" target="quHDzJTUn6T4a545BPjp-3" edge="1">
          <mxGeometry relative="1" as="geometry">
            <Array as="points">
              <mxPoint x="200" y="280" />
              <mxPoint x="200" y="460" />
            </Array>
          </mxGeometry>
        </mxCell>
        <mxCell id="quHDzJTUn6T4a545BPjp-33" value="&lt;span style=&quot;color: rgb(51, 51, 51); font-family: -apple-system, BlinkMacSystemFont, &amp;quot;Helvetica Neue&amp;quot;, &amp;quot;PingFang SC&amp;quot;, &amp;quot;Microsoft YaHei&amp;quot;, &amp;quot;Source Han Sans SC&amp;quot;, &amp;quot;Noto Sans CJK SC&amp;quot;, &amp;quot;WenQuanYi Micro Hei&amp;quot;, sans-serif; font-size: 15px; text-align: start;&quot;&gt;pull&amp;nbsp;&lt;/span&gt;" style="edgeLabel;html=1;align=center;verticalAlign=middle;resizable=0;points=[];fontSize=11;" parent="quHDzJTUn6T4a545BPjp-32" vertex="1" connectable="0">
          <mxGeometry x="-0.4511" y="-1" relative="1" as="geometry">
            <mxPoint as="offset" />
          </mxGeometry>
        </mxCell>
        <mxCell id="tas6K1aLXxDEl5l0J1Os-1" value="分区策略" style="text;html=1;align=center;verticalAlign=middle;resizable=0;points=[];autosize=1;strokeColor=none;fillColor=none;" parent="1" vertex="1">
          <mxGeometry x="345" y="550" width="70" height="30" as="geometry" />
        </mxCell>
        <mxCell id="tas6K1aLXxDEl5l0J1Os-4" value="" style="edgeStyle=orthogonalEdgeStyle;rounded=0;orthogonalLoop=1;jettySize=auto;html=1;" parent="1" source="tas6K1aLXxDEl5l0J1Os-9" target="tas6K1aLXxDEl5l0J1Os-3" edge="1">
          <mxGeometry relative="1" as="geometry">
            <mxPoint x="380" y="640" as="sourcePoint" />
          </mxGeometry>
        </mxCell>
        <mxCell id="tas6K1aLXxDEl5l0J1Os-10" value="" style="edgeStyle=orthogonalEdgeStyle;rounded=0;orthogonalLoop=1;jettySize=auto;html=1;" parent="1" source="tas6K1aLXxDEl5l0J1Os-3" target="tas6K1aLXxDEl5l0J1Os-5" edge="1">
          <mxGeometry relative="1" as="geometry" />
        </mxCell>
        <mxCell id="tas6K1aLXxDEl5l0J1Os-15" value="" style="edgeStyle=orthogonalEdgeStyle;rounded=0;orthogonalLoop=1;jettySize=auto;html=1;" parent="1" source="tas6K1aLXxDEl5l0J1Os-3" target="tas6K1aLXxDEl5l0J1Os-14" edge="1">
          <mxGeometry relative="1" as="geometry" />
        </mxCell>
        <mxCell id="tas6K1aLXxDEl5l0J1Os-3" value="是否指定分区" style="rhombus;whiteSpace=wrap;html=1;" parent="1" vertex="1">
          <mxGeometry x="320" y="680" width="120" height="50" as="geometry" />
        </mxCell>
        <mxCell id="tas6K1aLXxDEl5l0J1Os-8" style="edgeStyle=orthogonalEdgeStyle;rounded=0;orthogonalLoop=1;jettySize=auto;html=1;entryX=0.5;entryY=0;entryDx=0;entryDy=0;" parent="1" source="tas6K1aLXxDEl5l0J1Os-5" target="tas6K1aLXxDEl5l0J1Os-7" edge="1">
          <mxGeometry relative="1" as="geometry" />
        </mxCell>
        <mxCell id="tas6K1aLXxDEl5l0J1Os-19" style="edgeStyle=orthogonalEdgeStyle;rounded=0;orthogonalLoop=1;jettySize=auto;html=1;" parent="1" source="tas6K1aLXxDEl5l0J1Os-5" target="tas6K1aLXxDEl5l0J1Os-18" edge="1">
          <mxGeometry relative="1" as="geometry" />
        </mxCell>
        <mxCell id="tas6K1aLXxDEl5l0J1Os-5" value="是否指定key" style="rhombus;whiteSpace=wrap;html=1;" parent="1" vertex="1">
          <mxGeometry x="320" y="770" width="120" height="50" as="geometry" />
        </mxCell>
        <mxCell id="tas6K1aLXxDEl5l0J1Os-7" value="默认的&lt;br&gt;分区策略" style="ellipse;whiteSpace=wrap;html=1;aspect=fixed;" parent="1" vertex="1">
          <mxGeometry x="350" y="860" width="60" height="60" as="geometry" />
        </mxCell>
        <mxCell id="tas6K1aLXxDEl5l0J1Os-9" value="" style="ellipse;whiteSpace=wrap;html=1;aspect=fixed;" parent="1" vertex="1">
          <mxGeometry x="350" y="580" width="60" height="60" as="geometry" />
        </mxCell>
        <mxCell id="tas6K1aLXxDEl5l0J1Os-11" value="否" style="text;html=1;align=center;verticalAlign=middle;resizable=0;points=[];autosize=1;strokeColor=none;fillColor=none;" parent="1" vertex="1">
          <mxGeometry x="370" y="730" width="40" height="30" as="geometry" />
        </mxCell>
        <mxCell id="tas6K1aLXxDEl5l0J1Os-12" value="否" style="text;html=1;align=center;verticalAlign=middle;resizable=0;points=[];autosize=1;strokeColor=none;fillColor=none;" parent="1" vertex="1">
          <mxGeometry x="370" y="820" width="40" height="30" as="geometry" />
        </mxCell>
        <mxCell id="tas6K1aLXxDEl5l0J1Os-14" value="指定的&lt;br&gt;分区" style="ellipse;whiteSpace=wrap;html=1;aspect=fixed;" parent="1" vertex="1">
          <mxGeometry x="480" y="675" width="60" height="60" as="geometry" />
        </mxCell>
        <mxCell id="tas6K1aLXxDEl5l0J1Os-16" value="是" style="text;html=1;align=center;verticalAlign=middle;resizable=0;points=[];autosize=1;strokeColor=none;fillColor=none;" parent="1" vertex="1">
          <mxGeometry x="440" y="680" width="40" height="30" as="geometry" />
        </mxCell>
        <mxCell id="tas6K1aLXxDEl5l0J1Os-17" value="是" style="text;html=1;align=center;verticalAlign=middle;resizable=0;points=[];autosize=1;strokeColor=none;fillColor=none;" parent="1" vertex="1">
          <mxGeometry x="440" y="770" width="40" height="30" as="geometry" />
        </mxCell>
        <mxCell id="tas6K1aLXxDEl5l0J1Os-18" value="key的&lt;br&gt;hash分区" style="ellipse;whiteSpace=wrap;html=1;aspect=fixed;" parent="1" vertex="1">
          <mxGeometry x="480" y="765" width="60" height="60" as="geometry" />
        </mxCell>
        <mxCell id="RqvUq66pB6Gr40ib2uWk-16" value="&lt;span style=&quot;color: rgb(51, 51, 51); font-family: -apple-system, BlinkMacSystemFont, &amp;quot;Helvetica Neue&amp;quot;, &amp;quot;PingFang SC&amp;quot;, &amp;quot;Microsoft YaHei&amp;quot;, &amp;quot;Source Han Sans SC&amp;quot;, &amp;quot;Noto Sans CJK SC&amp;quot;, &amp;quot;WenQuanYi Micro Hei&amp;quot;, sans-serif; font-size: 15px; text-align: start; background-color: rgb(255, 255, 255);&quot;&gt;broker&lt;/span&gt;" style="text;html=1;align=center;verticalAlign=middle;resizable=0;points=[];autosize=1;strokeColor=none;fillColor=none;fontSize=11;" parent="1" vertex="1">
          <mxGeometry x="415" y="1000" width="70" height="30" as="geometry" />
        </mxCell>
        <mxCell id="RqvUq66pB6Gr40ib2uWk-20" value="" style="group" parent="1" vertex="1" connectable="0">
          <mxGeometry x="460" y="1040" width="160" height="150" as="geometry" />
        </mxCell>
        <mxCell id="RqvUq66pB6Gr40ib2uWk-17" value="后台处理网络请求的线程" style="rounded=0;whiteSpace=wrap;html=1;" parent="RqvUq66pB6Gr40ib2uWk-20" vertex="1">
          <mxGeometry y="30" width="160" height="40" as="geometry" />
        </mxCell>
        <mxCell id="RqvUq66pB6Gr40ib2uWk-1" value="num.network.threads = 3" style="text;html=1;align=center;verticalAlign=middle;resizable=0;points=[];autosize=1;strokeColor=none;fillColor=none;" parent="RqvUq66pB6Gr40ib2uWk-20" vertex="1">
          <mxGeometry width="160" height="30" as="geometry" />
        </mxCell>
        <mxCell id="RqvUq66pB6Gr40ib2uWk-18" value="后台处理网络请求的线程" style="rounded=0;whiteSpace=wrap;html=1;" parent="RqvUq66pB6Gr40ib2uWk-20" vertex="1">
          <mxGeometry y="70" width="160" height="40" as="geometry" />
        </mxCell>
        <mxCell id="RqvUq66pB6Gr40ib2uWk-19" value="后台处理网络请求的线程" style="rounded=0;whiteSpace=wrap;html=1;" parent="RqvUq66pB6Gr40ib2uWk-20" vertex="1">
          <mxGeometry y="110" width="160" height="40" as="geometry" />
        </mxCell>
        <mxCell id="RqvUq66pB6Gr40ib2uWk-21" value="其他 broker 和 clients" style="text;html=1;align=center;verticalAlign=middle;resizable=0;points=[];autosize=1;strokeColor=none;fillColor=none;" parent="1" vertex="1">
          <mxGeometry x="630" y="1100" width="140" height="30" as="geometry" />
        </mxCell>
        <mxCell id="RqvUq66pB6Gr40ib2uWk-22" value="" style="endArrow=classic;html=1;rounded=0;entryX=1;entryY=0.5;entryDx=0;entryDy=0;" parent="1" target="RqvUq66pB6Gr40ib2uWk-18" edge="1">
          <mxGeometry width="50" height="50" relative="1" as="geometry">
            <mxPoint x="760" y="1130" as="sourcePoint" />
            <mxPoint x="530" y="940" as="targetPoint" />
          </mxGeometry>
        </mxCell>
        <mxCell id="RqvUq66pB6Gr40ib2uWk-23" value="" style="group" parent="1" vertex="1" connectable="0">
          <mxGeometry x="280" y="1040" width="160" height="150" as="geometry" />
        </mxCell>
        <mxCell id="RqvUq66pB6Gr40ib2uWk-24" value="实际处理 I/O 的线程" style="rounded=0;whiteSpace=wrap;html=1;" parent="RqvUq66pB6Gr40ib2uWk-23" vertex="1">
          <mxGeometry y="30" width="160" height="40" as="geometry" />
        </mxCell>
        <mxCell id="RqvUq66pB6Gr40ib2uWk-25" value="num.io.threads = 8" style="text;html=1;align=center;verticalAlign=middle;resizable=0;points=[];autosize=1;strokeColor=none;fillColor=none;" parent="RqvUq66pB6Gr40ib2uWk-23" vertex="1">
          <mxGeometry x="20" width="120" height="30" as="geometry" />
        </mxCell>
        <mxCell id="RqvUq66pB6Gr40ib2uWk-26" value="……" style="rounded=0;whiteSpace=wrap;html=1;" parent="RqvUq66pB6Gr40ib2uWk-23" vertex="1">
          <mxGeometry y="70" width="160" height="40" as="geometry" />
        </mxCell>
        <mxCell id="RqvUq66pB6Gr40ib2uWk-27" value="message.max.bytes" style="rounded=0;whiteSpace=wrap;html=1;" parent="RqvUq66pB6Gr40ib2uWk-23" vertex="1">
          <mxGeometry y="110" width="160" height="40" as="geometry" />
        </mxCell>
        <mxCell id="RqvUq66pB6Gr40ib2uWk-28" value="" style="endArrow=classic;html=1;rounded=0;entryX=0;entryY=0.5;entryDx=0;entryDy=0;" parent="1" target="RqvUq66pB6Gr40ib2uWk-26" edge="1">
          <mxGeometry width="50" height="50" relative="1" as="geometry">
            <mxPoint x="140" y="1130" as="sourcePoint" />
            <mxPoint x="630" y="1140" as="targetPoint" />
          </mxGeometry>
        </mxCell>
        <mxCell id="b9hsjoLaR-FR1s4FdNo--40" value="" style="group" parent="1" vertex="1" connectable="0">
          <mxGeometry x="240" y="1320" width="720" height="260" as="geometry" />
        </mxCell>
        <mxCell id="b9hsjoLaR-FR1s4FdNo--39" value="" style="rounded=0;whiteSpace=wrap;html=1;" parent="b9hsjoLaR-FR1s4FdNo--40" vertex="1">
          <mxGeometry width="720" height="260" as="geometry" />
        </mxCell>
        <mxCell id="b9hsjoLaR-FR1s4FdNo--1" value="" style="whiteSpace=wrap;html=1;" parent="b9hsjoLaR-FR1s4FdNo--40" vertex="1">
          <mxGeometry x="20" y="30" width="120" height="30" as="geometry" />
        </mxCell>
        <mxCell id="b9hsjoLaR-FR1s4FdNo--2" value="KafkaProducer" style="text;html=1;align=center;verticalAlign=middle;resizable=0;points=[];autosize=1;strokeColor=none;fillColor=none;" parent="b9hsjoLaR-FR1s4FdNo--40" vertex="1">
          <mxGeometry x="310" width="100" height="30" as="geometry" />
        </mxCell>
        <mxCell id="b9hsjoLaR-FR1s4FdNo--3" value="ProducerRecord" style="text;html=1;align=center;verticalAlign=middle;resizable=0;points=[];autosize=1;strokeColor=none;fillColor=none;" parent="b9hsjoLaR-FR1s4FdNo--40" vertex="1">
          <mxGeometry x="25" y="30" width="110" height="30" as="geometry" />
        </mxCell>
        <mxCell id="b9hsjoLaR-FR1s4FdNo--4" value="topic&lt;br&gt;partiton&lt;br&gt;key&lt;br&gt;value&lt;br&gt;timestamp" style="rounded=0;whiteSpace=wrap;html=1;" parent="b9hsjoLaR-FR1s4FdNo--40" vertex="1">
          <mxGeometry x="20" y="60" width="120" height="90" as="geometry" />
        </mxCell>
        <mxCell id="b9hsjoLaR-FR1s4FdNo--6" value="" style="rounded=0;whiteSpace=wrap;html=1;" parent="b9hsjoLaR-FR1s4FdNo--40" vertex="1">
          <mxGeometry x="180" y="30" width="360" height="210" as="geometry" />
        </mxCell>
        <mxCell id="b9hsjoLaR-FR1s4FdNo--7" value="topic &lt;br&gt;元数据缓存" style="rounded=1;whiteSpace=wrap;html=1;" parent="b9hsjoLaR-FR1s4FdNo--40" vertex="1">
          <mxGeometry x="195" y="40" width="90" height="40" as="geometry" />
        </mxCell>
        <mxCell id="b9hsjoLaR-FR1s4FdNo--22" style="edgeStyle=orthogonalEdgeStyle;rounded=0;orthogonalLoop=1;jettySize=auto;html=1;" parent="b9hsjoLaR-FR1s4FdNo--40" source="b9hsjoLaR-FR1s4FdNo--8" edge="1">
          <mxGeometry relative="1" as="geometry">
            <mxPoint x="400" y="115" as="targetPoint" />
          </mxGeometry>
        </mxCell>
        <mxCell id="b9hsjoLaR-FR1s4FdNo--8" value="partitoner" style="rounded=1;whiteSpace=wrap;html=1;" parent="b9hsjoLaR-FR1s4FdNo--40" vertex="1">
          <mxGeometry x="300" y="100" width="80" height="30" as="geometry" />
        </mxCell>
        <mxCell id="b9hsjoLaR-FR1s4FdNo--20" style="edgeStyle=orthogonalEdgeStyle;rounded=0;orthogonalLoop=1;jettySize=auto;html=1;entryX=0;entryY=0.5;entryDx=0;entryDy=0;exitX=0.5;exitY=1;exitDx=0;exitDy=0;" parent="b9hsjoLaR-FR1s4FdNo--40" source="b9hsjoLaR-FR1s4FdNo--7" target="b9hsjoLaR-FR1s4FdNo--8" edge="1">
          <mxGeometry relative="1" as="geometry" />
        </mxCell>
        <mxCell id="b9hsjoLaR-FR1s4FdNo--21" style="edgeStyle=orthogonalEdgeStyle;rounded=0;orthogonalLoop=1;jettySize=auto;html=1;entryX=0;entryY=0.5;entryDx=0;entryDy=0;exitX=0.5;exitY=0;exitDx=0;exitDy=0;" parent="b9hsjoLaR-FR1s4FdNo--40" source="b9hsjoLaR-FR1s4FdNo--9" target="b9hsjoLaR-FR1s4FdNo--8" edge="1">
          <mxGeometry relative="1" as="geometry" />
        </mxCell>
        <mxCell id="b9hsjoLaR-FR1s4FdNo--9" value="serializer&lt;br&gt;序列化器" style="rounded=1;whiteSpace=wrap;html=1;" parent="b9hsjoLaR-FR1s4FdNo--40" vertex="1">
          <mxGeometry x="195" y="150" width="90" height="40" as="geometry" />
        </mxCell>
        <mxCell id="b9hsjoLaR-FR1s4FdNo--18" value="" style="group" parent="b9hsjoLaR-FR1s4FdNo--40" vertex="1" connectable="0">
          <mxGeometry x="400" y="40" width="120" height="190" as="geometry" />
        </mxCell>
        <mxCell id="b9hsjoLaR-FR1s4FdNo--10" value="" style="rounded=1;whiteSpace=wrap;html=1;" parent="b9hsjoLaR-FR1s4FdNo--18" vertex="1">
          <mxGeometry width="120" height="190" as="geometry" />
        </mxCell>
        <mxCell id="b9hsjoLaR-FR1s4FdNo--12" value="消息缓冲池" style="text;html=1;align=center;verticalAlign=middle;resizable=0;points=[];autosize=1;strokeColor=none;fillColor=none;" parent="b9hsjoLaR-FR1s4FdNo--18" vertex="1">
          <mxGeometry x="20" width="80" height="30" as="geometry" />
        </mxCell>
        <mxCell id="b9hsjoLaR-FR1s4FdNo--13" value="batch 2" style="rounded=0;whiteSpace=wrap;html=1;" parent="b9hsjoLaR-FR1s4FdNo--18" vertex="1">
          <mxGeometry x="20" y="60" width="80" height="30" as="geometry" />
        </mxCell>
        <mxCell id="b9hsjoLaR-FR1s4FdNo--14" value="batch 1" style="rounded=0;whiteSpace=wrap;html=1;" parent="b9hsjoLaR-FR1s4FdNo--18" vertex="1">
          <mxGeometry x="20" y="30" width="80" height="30" as="geometry" />
        </mxCell>
        <mxCell id="b9hsjoLaR-FR1s4FdNo--15" value="batch 3" style="rounded=0;whiteSpace=wrap;html=1;" parent="b9hsjoLaR-FR1s4FdNo--18" vertex="1">
          <mxGeometry x="20" y="90" width="80" height="30" as="geometry" />
        </mxCell>
        <mxCell id="b9hsjoLaR-FR1s4FdNo--16" value="……" style="rounded=0;whiteSpace=wrap;html=1;" parent="b9hsjoLaR-FR1s4FdNo--18" vertex="1">
          <mxGeometry x="20" y="120" width="80" height="30" as="geometry" />
        </mxCell>
        <mxCell id="b9hsjoLaR-FR1s4FdNo--17" value="batch n" style="rounded=0;whiteSpace=wrap;html=1;" parent="b9hsjoLaR-FR1s4FdNo--18" vertex="1">
          <mxGeometry x="20" y="150" width="80" height="30" as="geometry" />
        </mxCell>
        <mxCell id="b9hsjoLaR-FR1s4FdNo--24" value="broker" style="rounded=0;whiteSpace=wrap;html=1;" parent="b9hsjoLaR-FR1s4FdNo--40" vertex="1">
          <mxGeometry x="580" y="30" width="120" height="40" as="geometry" />
        </mxCell>
        <mxCell id="b9hsjoLaR-FR1s4FdNo--19" style="edgeStyle=orthogonalEdgeStyle;rounded=0;orthogonalLoop=1;jettySize=auto;html=1;" parent="b9hsjoLaR-FR1s4FdNo--40" source="b9hsjoLaR-FR1s4FdNo--4" target="b9hsjoLaR-FR1s4FdNo--9" edge="1">
          <mxGeometry relative="1" as="geometry" />
        </mxCell>
        <mxCell id="b9hsjoLaR-FR1s4FdNo--28" style="edgeStyle=orthogonalEdgeStyle;rounded=0;orthogonalLoop=1;jettySize=auto;html=1;entryX=1;entryY=0.905;entryDx=0;entryDy=0;entryPerimeter=0;" parent="b9hsjoLaR-FR1s4FdNo--40" source="b9hsjoLaR-FR1s4FdNo--25" target="b9hsjoLaR-FR1s4FdNo--6" edge="1">
          <mxGeometry relative="1" as="geometry" />
        </mxCell>
        <mxCell id="b9hsjoLaR-FR1s4FdNo--25" value="RecordMetadata" style="rounded=0;whiteSpace=wrap;html=1;" parent="b9hsjoLaR-FR1s4FdNo--40" vertex="1">
          <mxGeometry x="580" y="200" width="120" height="40" as="geometry" />
        </mxCell>
        <mxCell id="b9hsjoLaR-FR1s4FdNo--27" style="edgeStyle=orthogonalEdgeStyle;rounded=0;orthogonalLoop=1;jettySize=auto;html=1;entryX=0.5;entryY=0;entryDx=0;entryDy=0;" parent="b9hsjoLaR-FR1s4FdNo--40" source="b9hsjoLaR-FR1s4FdNo--26" target="b9hsjoLaR-FR1s4FdNo--25" edge="1">
          <mxGeometry relative="1" as="geometry" />
        </mxCell>
        <mxCell id="b9hsjoLaR-FR1s4FdNo--26" value="成功" style="rhombus;whiteSpace=wrap;html=1;" parent="b9hsjoLaR-FR1s4FdNo--40" vertex="1">
          <mxGeometry x="600" y="115" width="80" height="40" as="geometry" />
        </mxCell>
        <mxCell id="b9hsjoLaR-FR1s4FdNo--34" style="edgeStyle=orthogonalEdgeStyle;rounded=0;orthogonalLoop=1;jettySize=auto;html=1;entryX=0.5;entryY=0;entryDx=0;entryDy=0;" parent="b9hsjoLaR-FR1s4FdNo--40" source="b9hsjoLaR-FR1s4FdNo--24" target="b9hsjoLaR-FR1s4FdNo--26" edge="1">
          <mxGeometry relative="1" as="geometry" />
        </mxCell>
        <mxCell id="b9hsjoLaR-FR1s4FdNo--29" value="是" style="text;html=1;align=center;verticalAlign=middle;resizable=0;points=[];autosize=1;strokeColor=none;fillColor=none;" parent="b9hsjoLaR-FR1s4FdNo--40" vertex="1">
          <mxGeometry x="630" y="155" width="40" height="30" as="geometry" />
        </mxCell>
        <mxCell id="b9hsjoLaR-FR1s4FdNo--36" style="edgeStyle=orthogonalEdgeStyle;rounded=0;orthogonalLoop=1;jettySize=auto;html=1;" parent="b9hsjoLaR-FR1s4FdNo--40" source="b9hsjoLaR-FR1s4FdNo--30" edge="1">
          <mxGeometry relative="1" as="geometry">
            <mxPoint x="552.5" y="50" as="targetPoint" />
          </mxGeometry>
        </mxCell>
        <mxCell id="b9hsjoLaR-FR1s4FdNo--30" value="错误" style="rounded=0;whiteSpace=wrap;html=1;" parent="b9hsjoLaR-FR1s4FdNo--40" vertex="1">
          <mxGeometry x="530" y="125" width="45" height="20" as="geometry" />
        </mxCell>
        <mxCell id="b9hsjoLaR-FR1s4FdNo--32" value="否" style="text;html=1;align=center;verticalAlign=middle;resizable=0;points=[];autosize=1;strokeColor=none;fillColor=none;" parent="b9hsjoLaR-FR1s4FdNo--40" vertex="1">
          <mxGeometry x="570" y="110" width="40" height="30" as="geometry" />
        </mxCell>
        <mxCell id="b9hsjoLaR-FR1s4FdNo--31" style="edgeStyle=orthogonalEdgeStyle;rounded=0;orthogonalLoop=1;jettySize=auto;html=1;" parent="b9hsjoLaR-FR1s4FdNo--40" source="b9hsjoLaR-FR1s4FdNo--26" target="b9hsjoLaR-FR1s4FdNo--30" edge="1">
          <mxGeometry relative="1" as="geometry" />
        </mxCell>
        <mxCell id="b9hsjoLaR-FR1s4FdNo--35" style="edgeStyle=orthogonalEdgeStyle;rounded=0;orthogonalLoop=1;jettySize=auto;html=1;entryX=0;entryY=0.5;entryDx=0;entryDy=0;" parent="b9hsjoLaR-FR1s4FdNo--40" source="b9hsjoLaR-FR1s4FdNo--10" target="b9hsjoLaR-FR1s4FdNo--24" edge="1">
          <mxGeometry relative="1" as="geometry">
            <Array as="points">
              <mxPoint x="540" y="50" />
              <mxPoint x="540" y="50" />
            </Array>
          </mxGeometry>
        </mxCell>
        <mxCell id="b9hsjoLaR-FR1s4FdNo--37" value="重试" style="text;html=1;align=center;verticalAlign=middle;resizable=0;points=[];autosize=1;strokeColor=none;fillColor=none;" parent="b9hsjoLaR-FR1s4FdNo--40" vertex="1">
          <mxGeometry x="543" y="80" width="50" height="30" as="geometry" />
        </mxCell>
        <mxCell id="wAi_R29Kmgo8N0L94blS-1" value="Consumer 位移提交" style="text;html=1;align=center;verticalAlign=middle;resizable=0;points=[];autosize=1;strokeColor=none;fillColor=none;" parent="1" vertex="1">
          <mxGeometry x="240" y="1640" width="130" height="30" as="geometry" />
        </mxCell>
        <mxCell id="wAi_R29Kmgo8N0L94blS-18" value="" style="group" parent="1" vertex="1" connectable="0">
          <mxGeometry x="70" y="1680" width="370" height="240" as="geometry" />
        </mxCell>
        <mxCell id="wAi_R29Kmgo8N0L94blS-6" value="kafka 集群" style="text;html=1;align=center;verticalAlign=middle;resizable=0;points=[];autosize=1;strokeColor=none;fillColor=none;" parent="wAi_R29Kmgo8N0L94blS-18" vertex="1">
          <mxGeometry x="210" width="80" height="30" as="geometry" />
        </mxCell>
        <mxCell id="wAi_R29Kmgo8N0L94blS-10" value="作为 consumer group &lt;br&gt;的coordinator" style="text;html=1;align=center;verticalAlign=middle;resizable=0;points=[];autosize=1;strokeColor=none;fillColor=none;" parent="wAi_R29Kmgo8N0L94blS-18" vertex="1">
          <mxGeometry y="75" width="140" height="40" as="geometry" />
        </mxCell>
        <mxCell id="wAi_R29Kmgo8N0L94blS-17" value="" style="group" parent="wAi_R29Kmgo8N0L94blS-18" vertex="1" connectable="0">
          <mxGeometry x="150" y="30" width="220" height="210" as="geometry" />
        </mxCell>
        <mxCell id="wAi_R29Kmgo8N0L94blS-12" value="" style="rounded=1;whiteSpace=wrap;html=1;" parent="wAi_R29Kmgo8N0L94blS-17" vertex="1">
          <mxGeometry width="220" height="210" as="geometry" />
        </mxCell>
        <mxCell id="wAi_R29Kmgo8N0L94blS-2" value="" style="rounded=0;whiteSpace=wrap;html=1;" parent="wAi_R29Kmgo8N0L94blS-17" vertex="1">
          <mxGeometry x="36.666666666666664" y="10" width="146.66666666666666" height="110" as="geometry" />
        </mxCell>
        <mxCell id="wAi_R29Kmgo8N0L94blS-3" value="broker 2" style="rounded=0;whiteSpace=wrap;html=1;" parent="wAi_R29Kmgo8N0L94blS-17" vertex="1">
          <mxGeometry x="36.666666666666664" y="120" width="146.66666666666666" height="40" as="geometry" />
        </mxCell>
        <mxCell id="wAi_R29Kmgo8N0L94blS-4" value="broker 3" style="rounded=0;whiteSpace=wrap;html=1;" parent="wAi_R29Kmgo8N0L94blS-17" vertex="1">
          <mxGeometry x="36.666666666666664" y="160" width="146.66666666666666" height="40" as="geometry" />
        </mxCell>
        <mxCell id="wAi_R29Kmgo8N0L94blS-15" value="&lt;span style=&quot;&quot;&gt;broker 1&lt;/span&gt;" style="text;html=1;align=center;verticalAlign=middle;resizable=0;points=[];autosize=1;strokeColor=none;fillColor=none;" parent="wAi_R29Kmgo8N0L94blS-17" vertex="1">
          <mxGeometry x="75.00333333333333" y="10" width="70" height="30" as="geometry" />
        </mxCell>
        <mxCell id="wAi_R29Kmgo8N0L94blS-16" value="__consumer_offsets&amp;nbsp;" style="rounded=0;whiteSpace=wrap;html=1;" parent="wAi_R29Kmgo8N0L94blS-17" vertex="1">
          <mxGeometry x="45" y="50" width="130" height="40" as="geometry" />
        </mxCell>
        <mxCell id="wAi_R29Kmgo8N0L94blS-11" style="edgeStyle=orthogonalEdgeStyle;rounded=0;orthogonalLoop=1;jettySize=auto;html=1;" parent="wAi_R29Kmgo8N0L94blS-18" source="wAi_R29Kmgo8N0L94blS-10" target="wAi_R29Kmgo8N0L94blS-2" edge="1">
          <mxGeometry relative="1" as="geometry" />
        </mxCell>
        <mxCell id="wAi_R29Kmgo8N0L94blS-19" value="" style="group" parent="1" vertex="1" connectable="0">
          <mxGeometry x="520" y="1680" width="115" height="170" as="geometry" />
        </mxCell>
        <mxCell id="wAi_R29Kmgo8N0L94blS-13" value="" style="rounded=1;whiteSpace=wrap;html=1;" parent="wAi_R29Kmgo8N0L94blS-19" vertex="1">
          <mxGeometry y="30" width="115" height="140" as="geometry" />
        </mxCell>
        <mxCell id="wAi_R29Kmgo8N0L94blS-5" value="consumer 1" style="rounded=0;whiteSpace=wrap;html=1;" parent="wAi_R29Kmgo8N0L94blS-19" vertex="1">
          <mxGeometry x="17.5" y="40" width="80" height="40" as="geometry" />
        </mxCell>
        <mxCell id="wAi_R29Kmgo8N0L94blS-7" value="consumer 2" style="rounded=0;whiteSpace=wrap;html=1;" parent="wAi_R29Kmgo8N0L94blS-19" vertex="1">
          <mxGeometry x="17.5" y="80" width="80" height="40" as="geometry" />
        </mxCell>
        <mxCell id="wAi_R29Kmgo8N0L94blS-8" value="consumer 3" style="rounded=0;whiteSpace=wrap;html=1;" parent="wAi_R29Kmgo8N0L94blS-19" vertex="1">
          <mxGeometry x="17.5" y="120" width="80" height="40" as="geometry" />
        </mxCell>
        <mxCell id="wAi_R29Kmgo8N0L94blS-9" value="consumer group" style="text;html=1;align=center;verticalAlign=middle;resizable=0;points=[];autosize=1;strokeColor=none;fillColor=none;" parent="wAi_R29Kmgo8N0L94blS-19" vertex="1">
          <mxGeometry x="2.5" width="110" height="30" as="geometry" />
        </mxCell>
        <mxCell id="wAi_R29Kmgo8N0L94blS-20" style="rounded=0;orthogonalLoop=1;jettySize=auto;html=1;exitX=0;exitY=0.5;exitDx=0;exitDy=0;entryX=1;entryY=0.5;entryDx=0;entryDy=0;" parent="1" source="wAi_R29Kmgo8N0L94blS-5" target="wAi_R29Kmgo8N0L94blS-16" edge="1">
          <mxGeometry relative="1" as="geometry">
            <mxPoint x="400" y="1780" as="targetPoint" />
          </mxGeometry>
        </mxCell>
        <mxCell id="wAi_R29Kmgo8N0L94blS-21" style="edgeStyle=none;rounded=0;orthogonalLoop=1;jettySize=auto;html=1;entryX=1;entryY=0.5;entryDx=0;entryDy=0;" parent="1" source="wAi_R29Kmgo8N0L94blS-7" target="wAi_R29Kmgo8N0L94blS-16" edge="1">
          <mxGeometry relative="1" as="geometry" />
        </mxCell>
        <mxCell id="wAi_R29Kmgo8N0L94blS-22" style="edgeStyle=none;rounded=0;orthogonalLoop=1;jettySize=auto;html=1;entryX=1;entryY=0.5;entryDx=0;entryDy=0;" parent="1" source="wAi_R29Kmgo8N0L94blS-8" target="wAi_R29Kmgo8N0L94blS-16" edge="1">
          <mxGeometry relative="1" as="geometry" />
        </mxCell>
        <mxCell id="wAi_R29Kmgo8N0L94blS-23" value="位移提交" style="text;html=1;align=center;verticalAlign=middle;resizable=0;points=[];autosize=1;strokeColor=none;fillColor=none;" parent="1" vertex="1">
          <mxGeometry x="445" y="1725" width="70" height="30" as="geometry" />
        </mxCell>
        <mxCell id="WNE4LI-_r5Fy2Scav_4b-31" style="edgeStyle=orthogonalEdgeStyle;rounded=0;orthogonalLoop=1;jettySize=auto;html=1;fontSize=12;" edge="1" parent="1" source="WNE4LI-_r5Fy2Scav_4b-2" target="WNE4LI-_r5Fy2Scav_4b-4">
          <mxGeometry relative="1" as="geometry" />
        </mxCell>
        <mxCell id="WNE4LI-_r5Fy2Scav_4b-2" value="client" style="rounded=0;whiteSpace=wrap;html=1;fillColor=#dae8fc;strokeColor=#6c8ebf;" vertex="1" parent="1">
          <mxGeometry x="40" y="2125" width="80" height="40" as="geometry" />
        </mxCell>
        <mxCell id="WNE4LI-_r5Fy2Scav_4b-4" value="" style="rounded=0;whiteSpace=wrap;html=1;fillColor=#f5f5f5;fontColor=#333333;strokeColor=#666666;" vertex="1" parent="1">
          <mxGeometry x="270" y="1980" width="730" height="330" as="geometry" />
        </mxCell>
        <mxCell id="WNE4LI-_r5Fy2Scav_4b-5" value="broker" style="text;html=1;align=center;verticalAlign=middle;resizable=0;points=[];autosize=1;strokeColor=none;fillColor=none;" vertex="1" parent="1">
          <mxGeometry x="550" y="1980" width="60" height="30" as="geometry" />
        </mxCell>
        <mxCell id="WNE4LI-_r5Fy2Scav_4b-32" style="edgeStyle=orthogonalEdgeStyle;rounded=0;orthogonalLoop=1;jettySize=auto;html=1;fontSize=12;" edge="1" parent="1" source="WNE4LI-_r5Fy2Scav_4b-6" target="WNE4LI-_r5Fy2Scav_4b-30">
          <mxGeometry relative="1" as="geometry" />
        </mxCell>
        <mxCell id="WNE4LI-_r5Fy2Scav_4b-6" value="acceptor 线程" style="rounded=0;whiteSpace=wrap;html=1;fillColor=#e1d5e7;strokeColor=#9673a6;" vertex="1" parent="1">
          <mxGeometry x="290" y="2060" width="120" height="40" as="geometry" />
        </mxCell>
        <mxCell id="WNE4LI-_r5Fy2Scav_4b-21" value="" style="group" vertex="1" connectable="0" parent="1">
          <mxGeometry x="820" y="2020" width="160" height="270" as="geometry" />
        </mxCell>
        <mxCell id="WNE4LI-_r5Fy2Scav_4b-13" value="" style="rounded=0;whiteSpace=wrap;html=1;fontSize=16;fillColor=#fff2cc;strokeColor=#d6b656;" vertex="1" parent="WNE4LI-_r5Fy2Scav_4b-21">
          <mxGeometry width="160" height="270" as="geometry" />
        </mxCell>
        <mxCell id="WNE4LI-_r5Fy2Scav_4b-14" value="KafkaRequestHandler 线程池" style="text;html=1;strokeColor=none;fillColor=none;align=center;verticalAlign=middle;whiteSpace=wrap;rounded=0;fontSize=12;" vertex="1" parent="WNE4LI-_r5Fy2Scav_4b-21">
          <mxGeometry x="17.5" y="5" width="125" height="30" as="geometry" />
        </mxCell>
        <mxCell id="WNE4LI-_r5Fy2Scav_4b-15" value="线程" style="rounded=0;whiteSpace=wrap;html=1;fillColor=#ffe6cc;strokeColor=#d79b00;" vertex="1" parent="WNE4LI-_r5Fy2Scav_4b-21">
          <mxGeometry x="20" y="40" width="120" height="40" as="geometry" />
        </mxCell>
        <mxCell id="WNE4LI-_r5Fy2Scav_4b-16" value="线程" style="rounded=0;whiteSpace=wrap;html=1;fillColor=#ffe6cc;strokeColor=#d79b00;" vertex="1" parent="WNE4LI-_r5Fy2Scav_4b-21">
          <mxGeometry x="20" y="90" width="120" height="40" as="geometry" />
        </mxCell>
        <mxCell id="WNE4LI-_r5Fy2Scav_4b-17" value="线程" style="rounded=0;whiteSpace=wrap;html=1;fillColor=#ffe6cc;strokeColor=#d79b00;" vertex="1" parent="WNE4LI-_r5Fy2Scav_4b-21">
          <mxGeometry x="20" y="140" width="120" height="40" as="geometry" />
        </mxCell>
        <mxCell id="WNE4LI-_r5Fy2Scav_4b-18" value="&lt;font style=&quot;font-size: 16px;&quot;&gt;&lt;b&gt;……&lt;/b&gt;&lt;/font&gt;" style="text;html=1;align=center;verticalAlign=middle;resizable=0;points=[];autosize=1;strokeColor=none;fillColor=none;" vertex="1" parent="WNE4LI-_r5Fy2Scav_4b-21">
          <mxGeometry x="50" y="180" width="60" height="30" as="geometry" />
        </mxCell>
        <mxCell id="WNE4LI-_r5Fy2Scav_4b-20" value="线程" style="rounded=0;whiteSpace=wrap;html=1;fillColor=#ffe6cc;strokeColor=#d79b00;" vertex="1" parent="WNE4LI-_r5Fy2Scav_4b-21">
          <mxGeometry x="20" y="220" width="120" height="40" as="geometry" />
        </mxCell>
        <mxCell id="WNE4LI-_r5Fy2Scav_4b-25" value="" style="group" vertex="1" connectable="0" parent="1">
          <mxGeometry x="540" y="2020" width="160" height="220" as="geometry" />
        </mxCell>
        <mxCell id="WNE4LI-_r5Fy2Scav_4b-22" value="" style="rounded=0;whiteSpace=wrap;html=1;fillColor=#E3F7E2;strokeColor=#82b366;" vertex="1" parent="WNE4LI-_r5Fy2Scav_4b-25">
          <mxGeometry width="160" height="220" as="geometry" />
        </mxCell>
        <mxCell id="WNE4LI-_r5Fy2Scav_4b-23" value="&lt;span style=&quot;&quot;&gt;processor 线程&lt;br&gt;数组&lt;/span&gt;" style="text;html=1;align=center;verticalAlign=middle;resizable=0;points=[];autosize=1;strokeColor=none;fillColor=none;fontSize=12;" vertex="1" parent="WNE4LI-_r5Fy2Scav_4b-25">
          <mxGeometry x="30" width="100" height="40" as="geometry" />
        </mxCell>
        <mxCell id="WNE4LI-_r5Fy2Scav_4b-7" value="processor 线程" style="rounded=0;whiteSpace=wrap;html=1;fillColor=#d5e8d4;strokeColor=#82b366;" vertex="1" parent="WNE4LI-_r5Fy2Scav_4b-25">
          <mxGeometry x="20" y="40" width="120" height="40" as="geometry" />
        </mxCell>
        <mxCell id="WNE4LI-_r5Fy2Scav_4b-8" value="processor 线程" style="rounded=0;whiteSpace=wrap;html=1;fillColor=#d5e8d4;strokeColor=#82b366;" vertex="1" parent="WNE4LI-_r5Fy2Scav_4b-25">
          <mxGeometry x="20" y="90" width="120" height="40" as="geometry" />
        </mxCell>
        <mxCell id="WNE4LI-_r5Fy2Scav_4b-9" value="processor 线程" style="rounded=0;whiteSpace=wrap;html=1;fillColor=#d5e8d4;strokeColor=#82b366;" vertex="1" parent="WNE4LI-_r5Fy2Scav_4b-25">
          <mxGeometry x="20" y="170" width="120" height="40" as="geometry" />
        </mxCell>
        <mxCell id="WNE4LI-_r5Fy2Scav_4b-12" value="&lt;font style=&quot;font-size: 16px;&quot;&gt;&lt;b&gt;……&lt;/b&gt;&lt;/font&gt;" style="text;html=1;align=center;verticalAlign=middle;resizable=0;points=[];autosize=1;strokeColor=none;fillColor=none;" vertex="1" parent="WNE4LI-_r5Fy2Scav_4b-25">
          <mxGeometry x="45" y="130" width="60" height="30" as="geometry" />
        </mxCell>
        <mxCell id="WNE4LI-_r5Fy2Scav_4b-30" value="1、建立 Socket 连接" style="text;html=1;align=center;verticalAlign=middle;resizable=0;points=[];autosize=1;strokeColor=none;fillColor=none;fontSize=12;" vertex="1" parent="1">
          <mxGeometry x="130" y="2115" width="130" height="30" as="geometry" />
        </mxCell>
        <mxCell id="WNE4LI-_r5Fy2Scav_4b-34" value="2、监听连接" style="text;html=1;align=center;verticalAlign=middle;resizable=0;points=[];autosize=1;strokeColor=none;fillColor=none;fontSize=12;" vertex="1" parent="1">
          <mxGeometry x="190" y="2055" width="90" height="30" as="geometry" />
        </mxCell>
        <mxCell id="WNE4LI-_r5Fy2Scav_4b-35" style="edgeStyle=orthogonalEdgeStyle;rounded=0;orthogonalLoop=1;jettySize=auto;html=1;fontSize=12;" edge="1" parent="1" source="WNE4LI-_r5Fy2Scav_4b-6" target="WNE4LI-_r5Fy2Scav_4b-7">
          <mxGeometry relative="1" as="geometry" />
        </mxCell>
        <mxCell id="WNE4LI-_r5Fy2Scav_4b-36" value="3、分配 Socket 连接" style="text;html=1;align=center;verticalAlign=middle;resizable=0;points=[];autosize=1;strokeColor=none;fillColor=none;fontSize=12;" vertex="1" parent="1">
          <mxGeometry x="410" y="2055" width="130" height="30" as="geometry" />
        </mxCell>
        <mxCell id="WNE4LI-_r5Fy2Scav_4b-39" value="" style="rounded=0;whiteSpace=wrap;html=1;fillColor=#f5f5f5;fontColor=#333333;strokeColor=#666666;" vertex="1" parent="1">
          <mxGeometry x="270" y="2440" width="730" height="330" as="geometry" />
        </mxCell>
        <mxCell id="WNE4LI-_r5Fy2Scav_4b-40" value="餐厅" style="text;html=1;align=center;verticalAlign=middle;resizable=0;points=[];autosize=1;strokeColor=none;fillColor=none;" vertex="1" parent="1">
          <mxGeometry x="555" y="2440" width="50" height="30" as="geometry" />
        </mxCell>
        <mxCell id="WNE4LI-_r5Fy2Scav_4b-42" style="edgeStyle=orthogonalEdgeStyle;rounded=0;orthogonalLoop=1;jettySize=auto;html=1;fontSize=12;" edge="1" parent="1" source="WNE4LI-_r5Fy2Scav_4b-41" target="WNE4LI-_r5Fy2Scav_4b-39">
          <mxGeometry relative="1" as="geometry" />
        </mxCell>
        <mxCell id="WNE4LI-_r5Fy2Scav_4b-41" value="客户" style="rounded=0;whiteSpace=wrap;html=1;fillColor=#dae8fc;strokeColor=#6c8ebf;" vertex="1" parent="1">
          <mxGeometry x="40" y="2585" width="80" height="40" as="geometry" />
        </mxCell>
        <mxCell id="WNE4LI-_r5Fy2Scav_4b-45" style="edgeStyle=orthogonalEdgeStyle;rounded=0;orthogonalLoop=1;jettySize=auto;html=1;fontSize=12;" edge="1" parent="1" source="WNE4LI-_r5Fy2Scav_4b-43" target="WNE4LI-_r5Fy2Scav_4b-44">
          <mxGeometry relative="1" as="geometry" />
        </mxCell>
        <mxCell id="WNE4LI-_r5Fy2Scav_4b-43" value="前台接待员" style="rounded=0;whiteSpace=wrap;html=1;fillColor=#e1d5e7;strokeColor=#9673a6;" vertex="1" parent="1">
          <mxGeometry x="290" y="2520" width="120" height="40" as="geometry" />
        </mxCell>
        <mxCell id="WNE4LI-_r5Fy2Scav_4b-44" value="1、吃饭" style="text;html=1;align=center;verticalAlign=middle;resizable=0;points=[];autosize=1;strokeColor=none;fillColor=none;fontSize=12;" vertex="1" parent="1">
          <mxGeometry x="160" y="2570" width="70" height="30" as="geometry" />
        </mxCell>
        <mxCell id="WNE4LI-_r5Fy2Scav_4b-46" value="2、接待客户" style="text;html=1;align=center;verticalAlign=middle;resizable=0;points=[];autosize=1;strokeColor=none;fillColor=none;fontSize=12;" vertex="1" parent="1">
          <mxGeometry x="190" y="2500" width="90" height="30" as="geometry" />
        </mxCell>
        <mxCell id="WNE4LI-_r5Fy2Scav_4b-47" value="" style="group" vertex="1" connectable="0" parent="1">
          <mxGeometry x="540" y="2480" width="160" height="220" as="geometry" />
        </mxCell>
        <mxCell id="WNE4LI-_r5Fy2Scav_4b-48" value="" style="rounded=0;whiteSpace=wrap;html=1;fillColor=#E3F7E2;strokeColor=#82b366;" vertex="1" parent="WNE4LI-_r5Fy2Scav_4b-47">
          <mxGeometry width="160" height="220" as="geometry" />
        </mxCell>
        <mxCell id="WNE4LI-_r5Fy2Scav_4b-49" value="多个服务员" style="text;html=1;align=center;verticalAlign=middle;resizable=0;points=[];autosize=1;strokeColor=none;fillColor=none;fontSize=12;" vertex="1" parent="WNE4LI-_r5Fy2Scav_4b-47">
          <mxGeometry x="40" y="5" width="80" height="30" as="geometry" />
        </mxCell>
        <mxCell id="WNE4LI-_r5Fy2Scav_4b-50" value="服务员 A" style="rounded=0;whiteSpace=wrap;html=1;fillColor=#d5e8d4;strokeColor=#82b366;" vertex="1" parent="WNE4LI-_r5Fy2Scav_4b-47">
          <mxGeometry x="20" y="40" width="120" height="40" as="geometry" />
        </mxCell>
        <mxCell id="WNE4LI-_r5Fy2Scav_4b-51" value="服务员 B" style="rounded=0;whiteSpace=wrap;html=1;fillColor=#d5e8d4;strokeColor=#82b366;" vertex="1" parent="WNE4LI-_r5Fy2Scav_4b-47">
          <mxGeometry x="20" y="90" width="120" height="40" as="geometry" />
        </mxCell>
        <mxCell id="WNE4LI-_r5Fy2Scav_4b-52" value="服务员 C" style="rounded=0;whiteSpace=wrap;html=1;fillColor=#d5e8d4;strokeColor=#82b366;" vertex="1" parent="WNE4LI-_r5Fy2Scav_4b-47">
          <mxGeometry x="20" y="170" width="120" height="40" as="geometry" />
        </mxCell>
        <mxCell id="WNE4LI-_r5Fy2Scav_4b-53" value="&lt;font style=&quot;font-size: 16px;&quot;&gt;&lt;b&gt;……&lt;/b&gt;&lt;/font&gt;" style="text;html=1;align=center;verticalAlign=middle;resizable=0;points=[];autosize=1;strokeColor=none;fillColor=none;" vertex="1" parent="WNE4LI-_r5Fy2Scav_4b-47">
          <mxGeometry x="45" y="130" width="60" height="30" as="geometry" />
        </mxCell>
        <mxCell id="WNE4LI-_r5Fy2Scav_4b-54" style="edgeStyle=orthogonalEdgeStyle;rounded=0;orthogonalLoop=1;jettySize=auto;html=1;fontSize=12;" edge="1" parent="1" source="WNE4LI-_r5Fy2Scav_4b-43" target="WNE4LI-_r5Fy2Scav_4b-50">
          <mxGeometry relative="1" as="geometry" />
        </mxCell>
        <mxCell id="WNE4LI-_r5Fy2Scav_4b-55" value="" style="group" vertex="1" connectable="0" parent="1">
          <mxGeometry x="830" y="2480" width="160" height="270" as="geometry" />
        </mxCell>
        <mxCell id="WNE4LI-_r5Fy2Scav_4b-56" value="" style="rounded=0;whiteSpace=wrap;html=1;fontSize=16;fillColor=#fff2cc;strokeColor=#d6b656;" vertex="1" parent="WNE4LI-_r5Fy2Scav_4b-55">
          <mxGeometry width="160" height="270" as="geometry" />
        </mxCell>
        <mxCell id="WNE4LI-_r5Fy2Scav_4b-57" value="后厨" style="text;html=1;strokeColor=none;fillColor=none;align=center;verticalAlign=middle;whiteSpace=wrap;rounded=0;fontSize=12;" vertex="1" parent="WNE4LI-_r5Fy2Scav_4b-55">
          <mxGeometry x="17.5" y="5" width="125" height="30" as="geometry" />
        </mxCell>
        <mxCell id="WNE4LI-_r5Fy2Scav_4b-58" value="厨师 A" style="rounded=0;whiteSpace=wrap;html=1;fillColor=#ffe6cc;strokeColor=#d79b00;" vertex="1" parent="WNE4LI-_r5Fy2Scav_4b-55">
          <mxGeometry x="20" y="40" width="120" height="40" as="geometry" />
        </mxCell>
        <mxCell id="WNE4LI-_r5Fy2Scav_4b-59" value="厨师 B" style="rounded=0;whiteSpace=wrap;html=1;fillColor=#ffe6cc;strokeColor=#d79b00;" vertex="1" parent="WNE4LI-_r5Fy2Scav_4b-55">
          <mxGeometry x="20" y="90" width="120" height="40" as="geometry" />
        </mxCell>
        <mxCell id="WNE4LI-_r5Fy2Scav_4b-60" value="厨师 C" style="rounded=0;whiteSpace=wrap;html=1;fillColor=#ffe6cc;strokeColor=#d79b00;" vertex="1" parent="WNE4LI-_r5Fy2Scav_4b-55">
          <mxGeometry x="20" y="140" width="120" height="40" as="geometry" />
        </mxCell>
        <mxCell id="WNE4LI-_r5Fy2Scav_4b-61" value="&lt;font style=&quot;font-size: 16px;&quot;&gt;&lt;b&gt;……&lt;/b&gt;&lt;/font&gt;" style="text;html=1;align=center;verticalAlign=middle;resizable=0;points=[];autosize=1;strokeColor=none;fillColor=none;" vertex="1" parent="WNE4LI-_r5Fy2Scav_4b-55">
          <mxGeometry x="50" y="180" width="60" height="30" as="geometry" />
        </mxCell>
        <mxCell id="WNE4LI-_r5Fy2Scav_4b-62" value="厨师 D" style="rounded=0;whiteSpace=wrap;html=1;fillColor=#ffe6cc;strokeColor=#d79b00;" vertex="1" parent="WNE4LI-_r5Fy2Scav_4b-55">
          <mxGeometry x="20" y="220" width="120" height="40" as="geometry" />
        </mxCell>
        <mxCell id="WNE4LI-_r5Fy2Scav_4b-63" style="edgeStyle=orthogonalEdgeStyle;rounded=0;orthogonalLoop=1;jettySize=auto;html=1;fontSize=12;" edge="1" parent="1" source="WNE4LI-_r5Fy2Scav_4b-50" target="WNE4LI-_r5Fy2Scav_4b-58">
          <mxGeometry relative="1" as="geometry" />
        </mxCell>
      </root>
    </mxGraphModel>
  </diagram>
</mxfile>
